<?xml version="1.0" encoding="utf-8"?>
<!-- Generator: Adobe Illustrator 25.2.1, SVG Export Plug-In . SVG Version: 6.00 Build 0)  -->
<svg version="1.1" id="Layer_1" xmlns="http://www.w3.org/2000/svg" xmlns:xlink="http://www.w3.org/1999/xlink" x="0px" y="0px"
	 viewBox="0 0 403.3 406.04" style="enable-background:new 0 0 403.3 406.04;" xml:space="preserve">
<style type="text/css">
	.st0{fill:#F7FBFD;}
	.st1{fill:#43B7AB;}
</style>
<g>
	<path class="st0" d="M347.26,110.7c1.11,1.51,2.2,3.04,3.34,4.52c4.9,6.38,8.98,6.35,13.36-0.09c4.24,4.33,5.12,10.18,5.98,15.61
		c0.68,4.27-4.43,5.27-7.38,6.81c-2.4,1.25-5.57,0.22-8.26-0.71c-2.93-1.01-3.92,0.73-4.19,2.99c-0.23,1.89,2.96,4.58,0.49,5.45
		c-2.43,0.86-6.26,0.22-8.44-1.28c-2.42-1.66-4.3-2.03-7.11-2.02c-2.68,0-5.99-0.45-6.08-5.35c-0.05-2.73-1.39-7.32-7.38-4.42
		c-6.45,3.13-14.35,3.27-19.28,9.58c-0.31,0.4-1.02,0.85-1.44,0.76c-6.87-1.39-10.26,2.77-13.47,7.85
		c-1.59,2.51-3.43,5.14-2.44,7.78c1.7,4.53-0.82,7.05-3.67,9.03c-8.17,5.69-8.2,15.5-12.2,23.27c-1.03,2,1.53,4.89,2.48,6.91
		c2.44,5.16,0.12,9.37-0.42,14.04c-0.49,4.19,0.15,8.61,3.2,11.97c3.59,3.95,7.45,7.46,10.61,12.01c3.15,4.53,9.31,7.22,14.83,9.58
		c1.31,0.56,2.56-0.38,3.69-1.1c3.58-2.27,7.1-3.59,11.7-2.8c3.85,0.66,6.68-3.06,9.78-5.07c5.74-3.74,7.34-3.79,11.61,1.14
		c1.5,1.73,2.92,1.03,4.58,0.54c4.61-1.36,6.61,0.49,5.92,5.39c-0.24,1.68-0.37,3.42-0.9,5.02c-1.88,5.71,0.39,10.03,2.95,15.22
		c3.99,8.09,4.74,17.17-0.28,25.8c-4.1,7.05-8.03,14.23-5.17,22.96c0.98,2.99-1.49,5.35-2.19,8.05c-1.83,7.01-0.45,14.81-6.83,21.88
		c13.24-3.95,20.5-12.37,27.24-21.49c9.1-12.31,15.25-26.37,23.14-39.61c1.5,1.45,0.4,2.32,0.02,3.15
		c-29.92,65.75-80.12,106.92-151.64,117.33c-77.26,11.24-142.19-15.06-188.3-78.24C1.49,263.38-5.49,196.95,21.56,127.52
		C35.02,92.98,57.64,65.6,86.96,43.4c1.3-0.99,2.4-2.54,4.4-2.18C86.31,46,81.22,50.73,76.22,55.55
		c-9.64,9.28-16.28,21.02-25.34,30.85c-8.14,8.84-13.9,19.32-15.76,31.56c-0.54,3.55-2.71,6.49-0.84,10.8
		c1.08,2.5-1.3,6.76-1.96,10.28c-1.82,9.66,0.09,19.46-2.22,29.28c-1.75,7.44,3.39,15.55,9.2,18.93c4.32,2.51,5.69,5.28,7.5,8.78
		c0.99,1.91,2.33,3.69,4.24,4.46c4.04,1.64,5.98,5.31,6.45,8.72c1.14,8.19,6.7,13.04,11.82,18.94c0.54-2.26,0.27-4.7,2.93-4.59
		c2.1,0.09,2.32,2.1,2.8,3.71c0.43,1.44,1.36,2.84,1.38,4.27c0.05,4.91,2.12,9.68-2.15,14.6c-3.44,3.98-9.04,9.02-3.25,15.62
		c0.2,0.23-0.34,1.51-0.84,1.89c-3.56,2.73-1.33,6.23,0.13,7.95c4.16,4.87,6.25,10.74,9.32,16.12c4.57,8,8.7,16.33,18,20.29
		c3.56,1.52,6.65,4.71,6.7,8.62c0.1,6.97,2.41,13.43,4.02,19.95c2.23,9,3.95,18.21,7.99,26.77c1.27,2.7,4.94,2.78,5.18,5.28
		c0.7,7.26,5.91,10.63,11.19,13.92c5.51,3.43,5.32,3.19,7.03-2.79c0.68-2.38-0.29-2.37-1.75-3.02c-0.93-0.41-3.53-1.19-1.87-2.4
		c3.95-2.86-0.53-4.75-0.44-6.94c1.57-1.12,4.19,1.19,4.09-0.05c-0.43-5.27,3.09-2.55,4.95-2.73c2.11-0.2,4.62,0.08,5.51-2.08
		c0.94-2.28-1.65-3.34-2.91-4.79c-0.35-0.4-1.47-0.26-0.76-1.61c7.89,4.57,12.87-0.44,17.14-5.82c1.71-2.16,5.44-3.77,4.52-7.31
		c-1.22-4.71,1.65-6.17,5.04-7.33c3.55-1.21,7.17-2.11,10.95-2.54c5.79-0.65,9.82-4.6,10.12-10.34c0.28-5.23,4.71-9.65,2.72-15.28
		c-0.16-0.45,0.98-1.44,1.62-2.08c3.41-3.47,7.08-6.71,10.23-10.4c4.17-4.89,1.86-10.99-4.25-12.56c-1.95-0.5-3.94-1.55-5.47-2.86
		c-3.48-2.97-7.22-4.44-11.89-4.44c-3.48,0-8.09-0.01-10.21-2.06c-3.97-3.84-7.62-6.14-13.09-4.42c-0.42,0.13-1.18,1.04-1.12,0.09
		c0.4-6.32-5.29-1.66-7.36-4.29c4.69-3.26,0.78-6.02-0.4-9.21c-2.37-6.43-8.31-11.49-15.05-11.31c-3.78,0.1-6.33-1.52-8.24-4.04
		c-3.6-4.75-8.25-8.33-12.43-12.43c-1.99-1.95-3.55-1.8-5.9-1.72c-4.55,0.15-9.43,0.3-12-4.84c-1.33-2.65-3.5-2.44-5.84-1.67
		c-2.59,0.84-3.23,2.19-1.67,4.64c0.79,1.24,0.61,2.6-1.79,2.59c0.92-3.65-0.84-7.45,1.32-10.84c-7.16,0.81-12.33,4.44-15.05,11.89
		c-2.8-4.55-4.2-9.42-10.2-6.37c-1.18,0.6-2.01-1.17-2.86-2.24c-3.96-5.04-2.73-10.3-0.92-15.59c1.41-4.1-0.22-7.64-3.95-7.86
		c-8.12-0.47-5.11-4.93-3.88-8.83c0.67-2.13,1.91-4.09,2.83-6.15c0.59-1.33,3.29-2.37,0.97-4.14c-1.75-1.33-4.03-1.42-5.87-0.19
		c-1,0.67-1.72,2.05-2.14,3.25c-1.19,3.4-3.93,3.17-6.55,2.88c-2.63-0.3-3.26-2.78-3.26-4.7c-0.04-9.35,0.88-18.54,6.62-26.48
		c3.28-4.53,7.13-5.12,11.65-1.61c1.03,0.8,1.87,1.43,2.83,0.3c4.97-5.87,7.3,2.19,11.31,2.29c1.99,0.05,1.53,3.4,1.11,5.41
		c-0.83,3.91-0.2,7.51,1.78,11.21c2.88-3.08,3.06-6.61,2.79-9.94c-0.74-9.1,1.25-12.12,11.96-16.37c2.63-1.04,4.72-2.52,6.08-5.23
		c1.16-2.29-1.5-5.95,3.98-7.04c4.69-0.94,6.08-9.25,13.03-8.1c0.31,0.05,0.91-0.58,1.09-1.01c3.4-8.04,11.34-5.51,17.16-7.91
		c-1.19,1.31-2.68,2-4.06,2.86c-0.33,0.21-0.5,1.06-0.37,1.49c0.1,0.32,0.98,0.75,1.24,0.61c4.22-2.14,8.91-2.77,13.33-4.23
		c0.76-0.25,1.11-1.06,0.72-1.86c-0.37-0.78-0.96-1.03-1.76-0.39c-3.13,2.46-5.9,2.41-7.87-1.4c-1.51-2.92-1.5-5.47,3-6.28
		c-3.53-2.29-6.59,1.33-9.68-0.86c3.05-1.64,5.84-4.16,9.02-3.47c6.57,1.43,12.91,2.36,19.5-0.6c-2.58,2.92-5.15,5.84-7.83,8.87
		c4.13,2.69,9.79,0.34,13.42,5.63c-0.94-6.1-0.81-6.24-4.84-10.05c-2.41-2.29,0.55-3.9,1-4.54c2.17-3.13,2.08-5.3-0.93-7.66
		c-4.34-3.4-5.71-8.32-6.45-13.5c-0.15-1.05-0.36-2.08-0.55-3.15c-2.5,0.16-3.25,2.44-5.07,2.96c-3.07,0.88-5.26,0.08-4.37-3.45
		c1.16-4.57-1.4-6.19-4.82-7.75c-4.12-1.88-5.5,0.4-7.11,3.66c-1.32,2.65-4.36,4.33-3.47,8.14c0.3,1.26-1.36,2.85-2.84,3.23
		c-4.48,1.16-7.78,3.19-8.41,8.31c-0.15,1.22-1.7,2.12-3.18,1.76c-1.85-0.46-1.04-2.15-1.23-3.33c-0.26-1.58,0.34-2.96,1.32-4.21
		c0.84-1.08,1.79-2.62,0.26-3.42c-2.98-1.57-3.47-4.94-5.55-6.92c-4.12-3.92-1.18-8.91,0.79-9.81c8.13-3.7,16.18-8.13,25.42-8.82
		c4.32-0.32,6.98-2.42,7.23-6.98c1.31,0.22,2.64,0.71,3.92,0.62c4.03-0.31,4.01,3.22,5.02,5.42c1.13,2.46-1.84,2.61-2.89,3.88
		c-2.51,3.06-6.45,0.47-10.23,3.2c4.59,0.29,6.52,2.25,8.28,5.16c2.12,3.5,5.83,2.85,9.14,1.42c3.87-1.67,0.71-4.05,0.55-6.14
		c-0.04-0.48,0.33-0.99,0.77-2.19c2.66,4.92,5.5,3.82,8.46,0.72c-1.87-2.88-4.87-4.25-5.17-9.25c-0.25-4.11-5.62-10.62-13-10.45
		c-3.04,0.07-5.32,1.17-6.9,3.87c-1.64,2.8,2.15,2.24,2.25,3.9c-3.44-0.36-5.39,3.69-9.26,3.23c2.65-3,0.91-7.03,3.94-9.66
		c-5.91-1.24-4.81,7.6-10.16,6.22c-0.5-2.15,3.31-1.25,2.31-3.73c-0.44-0.04-0.87-0.23-1.13-0.09c-2.15,1.12-5.45,4.64-6.44,1.42
		c-1.27-4.18-4.65-1.67-6.09-3.62c-0.83-1.12,0.39-1.52,0.67-2.28c1.27-3.45,2.27-6.99,0.12-10.52
		c17.3-16.33,39.84-19.26,61.65-22.74c37.12-5.92,73.14-0.51,107.71,14.44c4.53,1.96,8.22,5.12,12.48,7.46
		c3.71,2.04,2.54,7.41,5.71,10.62c2.62,2.65,3.56,6.97,5.27,10.62c-1.78,1.07-2.96-0.15-4.21-0.79c-1.33-0.68-2.61-1.45-3.95-2.21
		c0.57-1.36,3.3-0.17,3.01-2.38c-0.24-1.79-1.88-2.52-3.3-2.61c-4.75-0.31-9.58-0.77-14.28-0.29c-4.29,0.43-5.78,4.56-4.72,9.15
		c1.09,4.76,3.14,9.27,0.48,14.67c-1.99,4.04,3.02,6.25,5.61,8.6c2.09,1.9,4.28,1.79,5.56-1.62c0.76-2.02,2.17-0.38,3.09,0.38
		c2.58,2.15,5.67,3.64,7.98,6.82c3.84-5.58-1.1-9.55-1.48-14.03l-0.14,0.1c3.22,0,5.85-1.08,7.73-3.86c0.54-0.8,1.72-1.11,2.47-0.25
		c0.77,0.88,0.17,1.92-0.67,2.33c-3.92,1.87-2.54,2.86,0.43,4.1c1.19,0.5,3.56,1.85-0.17,2.65c-1.15,0.25-0.43,1.57,0.09,2.29
		c1.2,1.66,3.39,4.91,2.51,5.09c-3.14,0.65-4.59,3.48-7.54,4.45c-5.21,1.71-7.3-0.46-9.13-4.55c-0.32-0.72-0.97-2.31-2.41-1.48
		c-0.83,0.48-1.45,1.88-0.53,2.37c7.86,4.16,1.84,8.87,0.28,12.96c-2.07,5.41-3.99,11.52-12.1,11.85c2.34,2.89,5.53,2.46,7.82,4.06
		c2.71,1.9,3.41,4.34,4.22,6.99c0.66,2.15-0.29,3.21-2.53,3.26c-1.51,0.03-3.03,0.19-4.54,0.28c-9.28,0.53-9.18,0.5-6.72,9.17
		c0.65,2.3-0.44,5.77,0.87,7.04c1.61,1.56,0.86,4.96,4.47,5.05c5.97,0.15,12.12,1.47,16.09-4.68c0.74-1.15,1.28-2.8,0.39-4.3
		c-1.75-2.93-0.17-5.71,1.22-7.82c1.29-1.95,3.17-3.18,1.37-5.68c-0.09-0.13-0.04-0.38-0.01-0.56c0.13-0.79,11.49-6.4,11.98-5.82
		c4.17,4.89,10.57,5.59,15.77,8.53c0.92,0.52,1.65,1.38,2.57,2.16c0.09-4.92-2.57-6.63-6.91-8.05c-3.84-1.26-8.09-3.35-9.9-9.14
		c12.23,4.46,22.11,10.26,28.81,20.94c1.28-5.3,1.22-5.24-2.03-8.48c-0.83-0.83-2.67-1.29-1.24-3.56c1.24-1.97,1.98-3.11,4.23-1.78
		C347.36,110.81,347.26,110.7,347.26,110.7z M226.09,31.6c-3.34-0.9-5.99,3.02-8.51,0.53c-2.06-2.04-4.34-1.86-6.76-2.14
		c-6.51-0.77-12.71,1.79-19.16,1.65c-4.22-0.1-8.55-1.03-12.61,0.63c-2.32,0.95-4.15,2.75-7.09,2.46c-3-0.3-2.55,0.23-3.18,2.18
		c-1.18,3.64,1.15,3.17,3.19,3.3c4.58,0.28,7.92,1.56,6.21,7.29c-0.48,1.62,0,2.78,2.11,3.13c2.73,0.44,0.94,3,1.58,4.51
		c0.69,1.63-0.96,1.94-2.42,2.14c-3.46,0.49-4.25,3.49-3.7,5.93c0.82,3.61,2.38,7.18,4.28,10.37c2.07,3.46,6.4,3.91,9.81,4.72
		c1.88,0.45,2.6-3.67,4.07-5.35c2.47-2.83,3.42-7.59,7.79-8.2c8-1.12,13.89-7.37,21.83-8.47c2.19-0.3,3.91-3.32,3.56-3.72
		c-1.47-1.67-1.48-4.68-4.62-5.09c5.6,0.48,5.55-2.58,3.11-5.35C222.23,38.28,222.14,35.12,226.09,31.6z M277.38,90.55
		c-2.2,3.29,3.98,4.09,1.93,7.32c2.13,0.57,3.67-1.25,5.64-1.39c0.36-0.03,0.7-0.27,1.06-0.38c1.15-0.37,3.22-0.08,2.69-1.97
		c-0.4-1.42-0.39-2.85-2.39-4.29c-4.03-2.89-9.93-3.89-11.65-9.87c-0.4-1.4-3.7-0.8-5.03-2.48c-0.44,0.55-1.18,1.06-1.27,1.66
		c-0.3,2.01,0.3,4.05,2.17,4.78c1.74,0.68,2.34,2.73,4.63,2.84C276.65,86.85,278.99,88.05,277.38,90.55z M180.88,29.77
		c-7.63-3.12-15.05-4.71-21.39,2.43c-1.01-1.5,0.63-4.2-1.75-4.79c-1.77-0.44-3.29,1.03-4.03,2.54c-1.52,3.11,4.36,0.56,2.69,4.22
		c-1.21,0.08-3.51-1.38-4.65,1.79C162.5,37.79,170.97,30.17,180.88,29.77z M128.87,27.63c-2.21,1.86-6.45,0.34-7.5,4.15
		c-0.62,2.25,0.16,4.69-3.52,4.92c-2.15,0.13-2.14,2.4-1.55,4c0.43,1.18,8.64,1.35,9.06,0.16c1-2.86,4.23-3.43,5.66-5.86
		C122.11,34.53,130.87,30.4,128.87,27.63z M227.98,62.55c4.19,5.14,8.19,8.1,13.85,4.57c1.27-0.79,4-0.9,3.23-3.04
		c-0.72-1.97-3.1-2.78-5.24-2.05C236.16,63.28,232.49,63.72,227.98,62.55z M89.14,187.84c-3.94-4.12-7.38-8.35-11.49-11.8
		c-2.81-2.37-6.51-2.37-11.08-0.51c2.91,1.47,4.88-1.06,5.92,0.51c2.1,3.14,6.34,3.5,8.1,7.36
		C81.93,186.31,84.66,189.33,89.14,187.84z M268.82,86.72c-2.81-0.1-2.5,2.98-3.98,4.33c2.99,0.89-0.19,5.67,3.12,5.59
		c1.93-0.05,5.46-1.25,4.84-4.19C272.39,90.5,273.15,86.65,268.82,86.72z M104.45,195.9c-2.77-2.1-4.09-4.99-7.15-5.2
		c-1.24-0.08-3.72-1.62-3.9,1.4c-0.13,2.2,0.56,4.15,3.32,4.13C98.93,196.22,101.14,196.05,104.45,195.9z M146.86,31.41
		c-1.4,7.4,1.04,9.28,8.67,6.79C150.8,37.91,147.91,36.31,146.86,31.41z"/>
	<path class="st0" d="M347.36,110.81c-0.24-1.47,1.87-2.82-0.22-4.51c-3.6-2.9-3.64-7.62-5.13-11.59c-0.37-0.98-0.94-2.42,0.39-2.94
		c0.88-0.34,2.04-0.05,3,0.97c0.85,0.91,1.58,3.53,3.72-0.02c1.53-2.55,5.11,1.11,7.79,1.93c2.25,0.69,3.35,2.48,3.41,4.71
		c0.04,1.5-1.32,2.79-2.54,2.51c-5.72-1.32-6.32,3.01-7.3,6.56c-0.55,1.99-1.66,2.22-3.22,2.29
		C347.26,110.7,347.36,110.81,347.36,110.81z"/>
	<path class="st0" d="M396.1,181.52c-5.04-5.85-7.45-13.06-10.66-19.91c-2.78-5.92-6.91-11.2-10.43-16.78
		c-0.58-0.92-1.55-1.99-0.22-2.91c0.96-0.67,1.79,0.2,2.32,0.97c8.26,11.82,17.26,23.27,19.36,38.2L396.1,181.52z"/>
	<path class="st0" d="M354.03,77.65c8.28,6.82,14.52,15.28,19.85,24.92C369.32,102.22,355.33,84.91,354.03,77.65z"/>
	<path class="st0" d="M300.63,65.16c-4.87-0.72-9.23-7.28-8.06-12.21c0.37-1.58,2.1-1.65,2.3-0.6c0.89,4.69,4.38,7.75,6.55,11.61
		c0.11,0.2-0.6,0.86-0.93,1.3C300.49,65.26,300.63,65.16,300.63,65.16z"/>
	<path class="st0" d="M396.47,181.1c2.26-0.31,1.36-2.84,2.96-4.14c0.26,2.26,0.55,4.22,0.7,6.2c0.11,1.49,0.27,3.42-1.59,3.73
		c-2.22,0.37-2.04-1.64-2.17-3.11c-0.07-0.75-0.17-1.5-0.26-2.26C396.1,181.52,396.47,181.1,396.47,181.1z"/>
	<path class="st0" d="M95,112.89c-0.29-1.24-0.89-2.48-0.77-3.64c0.14-1.33,2.03-2.86,0.11-3.89c-2.1-1.12-3.18,1.25-4.71,2.15
		c-2.6,1.54-1,6.84-5.79,6.44c1.9-9.53,9.08-13.03,16.82-8.34c0.77,0.47,1,1.05,1.01,1.77c0.01,0.92-0.16,2.3-1.31,1.95
		C97.03,108.34,97.26,112.17,95,112.89z"/>
	<path class="st0" d="M84.71,98.23c2.56-2.85,5.51-2.23,7.9-3.19c1.06-0.42,2.9-0.93,3.14,0.97c0.23,1.75,2.13,3.48,0.56,5.28
		c-1.19,1.37-3.54,0.7-4.09,0.08C90.36,99.24,87.59,99.43,84.71,98.23z"/>
</g>
<g>
	<path class="st1" d="M345.26,109.7c1.11,1.51,2.2,3.04,3.34,4.52c4.9,6.38,8.98,6.35,13.36-0.09c4.24,4.33,5.12,10.18,5.98,15.61
		c0.68,4.27-4.43,5.27-7.38,6.81c-2.4,1.25-5.57,0.22-8.26-0.71c-2.93-1.01-3.92,0.73-4.19,2.99c-0.23,1.89,2.96,4.58,0.49,5.45
		c-2.43,0.86-6.26,0.22-8.44-1.28c-2.42-1.66-4.3-2.03-7.11-2.02c-2.68,0-5.99-0.45-6.08-5.35c-0.05-2.73-1.39-7.32-7.38-4.42
		c-6.45,3.13-14.35,3.27-19.28,9.58c-0.31,0.4-1.02,0.85-1.44,0.76c-6.87-1.39-10.26,2.77-13.47,7.85
		c-1.59,2.51-3.43,5.14-2.44,7.78c1.7,4.53-0.82,7.05-3.67,9.03c-8.17,5.69-8.2,15.5-12.2,23.27c-1.03,2,1.53,4.89,2.48,6.91
		c2.44,5.16,0.12,9.37-0.42,14.04c-0.49,4.19,0.15,8.61,3.2,11.97c3.59,3.95,7.45,7.46,10.61,12.01c3.15,4.53,9.31,7.22,14.83,9.58
		c1.31,0.56,2.56-0.38,3.69-1.1c3.58-2.27,7.1-3.59,11.7-2.8c3.85,0.66,6.68-3.06,9.78-5.07c5.74-3.74,7.34-3.79,11.61,1.14
		c1.5,1.73,2.92,1.03,4.58,0.54c4.61-1.36,6.61,0.49,5.92,5.39c-0.24,1.68-0.37,3.42-0.9,5.02c-1.88,5.71,0.39,10.03,2.95,15.22
		c3.99,8.09,4.74,17.17-0.28,25.8c-4.1,7.05-8.03,14.23-5.17,22.96c0.98,2.99-1.49,5.35-2.19,8.05c-1.83,7.01-0.45,14.81-6.83,21.88
		c13.24-3.95,20.5-12.37,27.24-21.49c9.1-12.31,15.25-26.37,23.14-39.61c1.5,1.45,0.4,2.32,0.02,3.15
		c-29.92,65.75-80.12,106.92-151.64,117.33c-77.26,11.24-142.19-15.06-188.3-78.24C-0.51,262.38-7.49,195.95,19.56,126.52
		C33.02,91.98,55.64,64.6,84.96,42.4c1.3-0.99,2.4-2.54,4.4-2.18C84.31,45,79.22,49.73,74.22,54.55
		c-9.64,9.28-16.28,21.02-25.34,30.85c-8.14,8.84-13.9,19.32-15.76,31.56c-0.54,3.55-2.71,6.49-0.84,10.8
		c1.08,2.5-1.3,6.76-1.96,10.28c-1.82,9.66,0.09,19.46-2.22,29.28c-1.75,7.44,3.39,15.55,9.2,18.93c4.32,2.51,5.69,5.28,7.5,8.78
		c0.99,1.91,2.33,3.69,4.24,4.46c4.04,1.64,5.98,5.31,6.45,8.72c1.14,8.19,6.7,13.04,11.82,18.94c0.54-2.26,0.27-4.7,2.93-4.59
		c2.1,0.09,2.32,2.1,2.8,3.71c0.43,1.44,1.36,2.84,1.38,4.27c0.05,4.91,2.12,9.68-2.15,14.6c-3.44,3.98-9.04,9.02-3.25,15.62
		c0.2,0.23-0.34,1.51-0.84,1.89c-3.56,2.73-1.33,6.23,0.13,7.95c4.16,4.87,6.25,10.74,9.32,16.12c4.57,8,8.7,16.33,18,20.29
		c3.56,1.52,6.65,4.71,6.7,8.62c0.1,6.97,2.41,13.43,4.02,19.95c2.23,9,3.95,18.21,7.99,26.77c1.27,2.7,4.94,2.78,5.18,5.28
		c0.7,7.26,5.91,10.63,11.19,13.92c5.51,3.43,5.32,3.19,7.03-2.79c0.68-2.38-0.29-2.37-1.75-3.02c-0.93-0.41-3.53-1.19-1.87-2.4
		c3.95-2.86-0.53-4.75-0.44-6.94c1.57-1.12,4.19,1.19,4.09-0.05c-0.43-5.27,3.09-2.55,4.95-2.73c2.11-0.2,4.62,0.08,5.51-2.08
		c0.94-2.28-1.65-3.34-2.91-4.79c-0.35-0.4-1.47-0.26-0.76-1.61c7.89,4.57,12.87-0.44,17.14-5.82c1.71-2.16,5.44-3.77,4.52-7.31
		c-1.22-4.71,1.65-6.17,5.04-7.33c3.55-1.21,7.17-2.11,10.95-2.54c5.79-0.65,9.82-4.6,10.12-10.34c0.28-5.23,4.71-9.65,2.72-15.28
		c-0.16-0.45,0.98-1.44,1.62-2.08c3.41-3.47,7.08-6.71,10.23-10.4c4.17-4.89,1.86-10.99-4.25-12.56c-1.95-0.5-3.94-1.55-5.47-2.86
		c-3.48-2.97-7.22-4.44-11.89-4.44c-3.48,0-8.09-0.01-10.21-2.06c-3.97-3.84-7.62-6.14-13.09-4.42c-0.42,0.13-1.18,1.04-1.12,0.09
		c0.4-6.32-5.29-1.66-7.36-4.29c4.69-3.26,0.78-6.02-0.4-9.21c-2.37-6.43-8.31-11.49-15.05-11.31c-3.78,0.1-6.33-1.52-8.24-4.04
		c-3.6-4.75-8.25-8.33-12.43-12.43c-1.99-1.95-3.55-1.8-5.9-1.72c-4.55,0.15-9.43,0.3-12-4.84c-1.33-2.65-3.5-2.44-5.84-1.67
		c-2.59,0.84-3.23,2.19-1.67,4.64c0.79,1.24,0.61,2.6-1.79,2.59c0.92-3.65-0.84-7.45,1.32-10.84c-7.16,0.81-12.33,4.44-15.05,11.89
		c-2.8-4.55-4.2-9.42-10.2-6.37c-1.18,0.6-2.01-1.17-2.86-2.24c-3.96-5.04-2.73-10.3-0.92-15.59c1.41-4.1-0.22-7.64-3.95-7.86
		c-8.12-0.47-5.11-4.93-3.88-8.83c0.67-2.13,1.91-4.09,2.83-6.15c0.59-1.33,3.29-2.37,0.97-4.14c-1.75-1.33-4.03-1.42-5.87-0.19
		c-1,0.67-1.72,2.05-2.14,3.25c-1.19,3.4-3.93,3.17-6.55,2.88c-2.63-0.3-3.26-2.78-3.26-4.7c-0.04-9.35,0.88-18.54,6.62-26.48
		c3.28-4.53,7.13-5.12,11.65-1.61c1.03,0.8,1.87,1.43,2.83,0.3c4.97-5.87,7.3,2.19,11.31,2.29c1.99,0.05,1.53,3.4,1.11,5.41
		c-0.83,3.91-0.2,7.51,1.78,11.21c2.88-3.08,3.06-6.61,2.79-9.94c-0.74-9.1,1.25-12.12,11.96-16.37c2.63-1.04,4.72-2.52,6.08-5.23
		c1.16-2.29-1.5-5.95,3.98-7.04c4.69-0.94,6.08-9.25,13.03-8.1c0.31,0.05,0.91-0.58,1.09-1.01c3.4-8.04,11.34-5.51,17.16-7.91
		c-1.19,1.31-2.68,2-4.06,2.86c-0.33,0.21-0.5,1.06-0.37,1.49c0.1,0.32,0.98,0.75,1.24,0.61c4.22-2.14,8.91-2.77,13.33-4.23
		c0.76-0.25,1.11-1.06,0.72-1.86c-0.37-0.78-0.96-1.03-1.76-0.39c-3.13,2.46-5.9,2.41-7.87-1.4c-1.51-2.92-1.5-5.47,3-6.28
		c-3.53-2.29-6.59,1.33-9.68-0.86c3.05-1.64,5.84-4.16,9.02-3.47c6.57,1.43,12.91,2.36,19.5-0.6c-2.58,2.92-5.15,5.84-7.83,8.87
		c4.13,2.69,9.79,0.34,13.42,5.63c-0.94-6.1-0.81-6.24-4.84-10.05c-2.41-2.29,0.55-3.9,1-4.54c2.17-3.13,2.08-5.3-0.93-7.66
		c-4.34-3.4-5.71-8.32-6.45-13.5c-0.15-1.05-0.36-2.08-0.55-3.15c-2.5,0.16-3.25,2.44-5.07,2.96c-3.07,0.88-5.26,0.08-4.37-3.45
		c1.16-4.57-1.4-6.19-4.82-7.75c-4.12-1.88-5.5,0.4-7.11,3.66c-1.32,2.65-4.36,4.33-3.47,8.14c0.3,1.26-1.36,2.85-2.84,3.23
		c-4.48,1.16-7.78,3.19-8.41,8.31c-0.15,1.22-1.7,2.12-3.18,1.76c-1.85-0.46-1.04-2.15-1.23-3.33c-0.26-1.58,0.34-2.96,1.32-4.21
		c0.84-1.08,1.79-2.62,0.26-3.42c-2.98-1.57-3.47-4.94-5.55-6.92c-4.12-3.92-1.18-8.91,0.79-9.81c8.13-3.7,16.18-8.13,25.42-8.82
		c4.32-0.32,6.98-2.42,7.23-6.98c1.31,0.22,2.64,0.71,3.92,0.62c4.03-0.31,4.01,3.22,5.02,5.42c1.13,2.46-1.84,2.61-2.89,3.88
		c-2.51,3.06-6.45,0.47-10.23,3.2c4.59,0.29,6.52,2.25,8.28,5.16c2.12,3.5,5.83,2.85,9.14,1.42c3.87-1.67,0.71-4.05,0.55-6.14
		c-0.04-0.48,0.33-0.99,0.77-2.19c2.66,4.92,5.5,3.82,8.46,0.72c-1.87-2.88-4.87-4.25-5.17-9.25c-0.25-4.11-5.62-10.62-13-10.45
		c-3.04,0.07-5.32,1.17-6.9,3.87c-1.64,2.8,2.15,2.24,2.25,3.9c-3.44-0.36-5.39,3.69-9.26,3.23c2.65-3,0.91-7.03,3.94-9.66
		c-5.91-1.24-4.81,7.6-10.16,6.22c-0.5-2.15,3.31-1.25,2.31-3.73c-0.44-0.04-0.87-0.23-1.13-0.09c-2.15,1.12-5.45,4.64-6.44,1.42
		c-1.27-4.18-4.65-1.67-6.09-3.62c-0.83-1.12,0.39-1.52,0.67-2.28c1.27-3.45,2.27-6.99,0.12-10.52
		c17.3-16.33,39.84-19.26,61.65-22.74c37.12-5.92,73.14-0.51,107.71,14.44c4.53,1.96,8.22,5.12,12.48,7.46
		c3.71,2.04,2.54,7.41,5.71,10.62c2.62,2.65,3.56,6.97,5.27,10.62c-1.78,1.07-2.96-0.15-4.21-0.79c-1.33-0.68-2.61-1.45-3.95-2.21
		c0.57-1.36,3.3-0.17,3.01-2.38c-0.24-1.79-1.88-2.52-3.3-2.61c-4.75-0.31-9.58-0.77-14.28-0.29c-4.29,0.43-5.78,4.56-4.72,9.15
		c1.09,4.76,3.14,9.27,0.48,14.67c-1.99,4.04,3.02,6.25,5.61,8.6c2.09,1.9,4.28,1.79,5.56-1.62c0.76-2.02,2.17-0.38,3.09,0.38
		c2.58,2.15,5.67,3.64,7.98,6.82c3.84-5.58-1.1-9.55-1.48-14.03l-0.14,0.1c3.22,0,5.85-1.08,7.73-3.86c0.54-0.8,1.72-1.11,2.47-0.25
		c0.77,0.88,0.17,1.92-0.67,2.33c-3.92,1.87-2.54,2.86,0.43,4.1c1.19,0.5,3.56,1.85-0.17,2.65c-1.15,0.25-0.43,1.57,0.09,2.29
		c1.2,1.66,3.39,4.91,2.51,5.09c-3.14,0.65-4.59,3.48-7.54,4.45c-5.21,1.71-7.3-0.46-9.13-4.55c-0.32-0.72-0.97-2.31-2.41-1.48
		c-0.83,0.48-1.45,1.88-0.53,2.37c7.86,4.16,1.84,8.87,0.28,12.96c-2.07,5.41-3.99,11.52-12.1,11.85c2.34,2.89,5.53,2.46,7.82,4.06
		c2.71,1.9,3.41,4.34,4.22,6.99c0.66,2.15-0.29,3.21-2.53,3.26c-1.51,0.03-3.03,0.19-4.54,0.28c-9.28,0.53-9.18,0.5-6.72,9.17
		c0.65,2.3-0.44,5.77,0.87,7.04c1.61,1.56,0.86,4.96,4.47,5.05c5.97,0.15,12.12,1.47,16.09-4.68c0.74-1.15,1.28-2.8,0.39-4.3
		c-1.75-2.93-0.17-5.71,1.22-7.82c1.29-1.95,3.17-3.18,1.37-5.68c-0.09-0.13-0.04-0.38-0.01-0.56c0.13-0.79,11.49-6.4,11.98-5.82
		c4.17,4.89,10.57,5.59,15.77,8.53c0.92,0.52,1.65,1.38,2.57,2.16c0.09-4.92-2.57-6.63-6.91-8.05c-3.84-1.26-8.09-3.35-9.9-9.14
		c12.23,4.46,22.11,10.26,28.81,20.94c1.28-5.3,1.22-5.24-2.03-8.48c-0.83-0.83-2.67-1.29-1.24-3.56c1.24-1.97,1.98-3.11,4.23-1.78
		C345.36,109.81,345.26,109.7,345.26,109.7z M224.09,30.6c-3.34-0.9-5.99,3.02-8.51,0.53c-2.06-2.04-4.34-1.86-6.76-2.14
		c-6.51-0.77-12.71,1.79-19.16,1.65c-4.22-0.1-8.55-1.03-12.61,0.63c-2.32,0.95-4.15,2.75-7.09,2.46c-3-0.3-2.55,0.23-3.18,2.18
		c-1.18,3.64,1.15,3.17,3.19,3.3c4.58,0.28,7.92,1.56,6.21,7.29c-0.48,1.62,0,2.78,2.11,3.13c2.73,0.44,0.94,3,1.58,4.51
		c0.69,1.63-0.96,1.94-2.42,2.14c-3.46,0.49-4.25,3.49-3.7,5.93c0.82,3.61,2.38,7.18,4.28,10.37c2.07,3.46,6.4,3.91,9.81,4.72
		c1.88,0.45,2.6-3.67,4.07-5.35c2.47-2.83,3.42-7.59,7.79-8.2c8-1.12,13.89-7.37,21.83-8.47c2.19-0.3,3.91-3.32,3.56-3.72
		c-1.47-1.67-1.48-4.68-4.62-5.09c5.6,0.48,5.55-2.58,3.11-5.35C220.23,37.28,220.14,34.12,224.09,30.6z M275.38,89.55
		c-2.2,3.29,3.98,4.09,1.93,7.32c2.13,0.57,3.67-1.25,5.64-1.39c0.36-0.03,0.7-0.27,1.06-0.38c1.15-0.37,3.22-0.08,2.69-1.97
		c-0.4-1.42-0.39-2.85-2.39-4.29c-4.03-2.89-9.93-3.89-11.65-9.87c-0.4-1.4-3.7-0.8-5.03-2.48c-0.44,0.55-1.18,1.06-1.27,1.66
		c-0.3,2.01,0.3,4.05,2.17,4.78c1.74,0.68,2.34,2.73,4.63,2.84C274.65,85.85,276.99,87.05,275.38,89.55z M178.88,28.77
		c-7.63-3.12-15.05-4.71-21.39,2.43c-1.01-1.5,0.63-4.2-1.75-4.79c-1.77-0.44-3.29,1.03-4.03,2.54c-1.52,3.11,4.36,0.56,2.69,4.22
		c-1.21,0.08-3.51-1.38-4.65,1.79C160.5,36.79,168.97,29.17,178.88,28.77z M126.87,26.63c-2.21,1.86-6.45,0.34-7.5,4.15
		c-0.62,2.25,0.16,4.69-3.52,4.92c-2.15,0.13-2.14,2.4-1.55,4c0.43,1.18,8.64,1.35,9.06,0.16c1-2.86,4.23-3.43,5.66-5.86
		C120.11,33.53,128.87,29.4,126.87,26.63z M225.98,61.55c4.19,5.14,8.19,8.1,13.85,4.57c1.27-0.79,4-0.9,3.23-3.04
		c-0.72-1.97-3.1-2.78-5.24-2.05C234.16,62.28,230.49,62.72,225.98,61.55z M87.14,186.84c-3.94-4.12-7.38-8.35-11.49-11.8
		c-2.81-2.37-6.51-2.37-11.08-0.51c2.91,1.47,4.88-1.06,5.92,0.51c2.1,3.14,6.34,3.5,8.1,7.36
		C79.93,185.31,82.66,188.33,87.14,186.84z M266.82,85.72c-2.81-0.1-2.5,2.98-3.98,4.33c2.99,0.89-0.19,5.67,3.12,5.59
		c1.93-0.05,5.46-1.25,4.84-4.19C270.39,89.5,271.15,85.65,266.82,85.72z M102.45,194.9c-2.77-2.1-4.09-4.99-7.15-5.2
		c-1.24-0.08-3.72-1.62-3.9,1.4c-0.13,2.2,0.56,4.15,3.32,4.13C96.93,195.22,99.14,195.05,102.45,194.9z M144.86,30.41
		c-1.4,7.4,1.04,9.28,8.67,6.79C148.8,36.91,145.91,35.31,144.86,30.41z"/>
	<path class="st1" d="M345.36,109.81c-0.24-1.47,1.87-2.82-0.22-4.51c-3.6-2.9-3.64-7.62-5.13-11.59c-0.37-0.98-0.94-2.42,0.39-2.94
		c0.88-0.34,2.04-0.05,3,0.97c0.85,0.91,1.58,3.53,3.72-0.02c1.53-2.55,5.11,1.11,7.79,1.93c2.25,0.69,3.35,2.48,3.41,4.71
		c0.04,1.5-1.32,2.79-2.54,2.51c-5.72-1.32-6.32,3.01-7.3,6.56c-0.55,1.99-1.66,2.22-3.22,2.29
		C345.26,109.7,345.36,109.81,345.36,109.81z"/>
	<path class="st1" d="M394.1,180.52c-5.04-5.85-7.45-13.06-10.66-19.91c-2.78-5.92-6.91-11.2-10.43-16.78
		c-0.58-0.92-1.55-1.99-0.22-2.91c0.96-0.67,1.79,0.2,2.32,0.97c8.26,11.82,17.26,23.27,19.36,38.2L394.1,180.52z"/>
	<path class="st1" d="M352.03,76.65c8.28,6.82,14.52,15.28,19.85,24.92C367.32,101.22,353.33,83.91,352.03,76.65z"/>
	<path class="st1" d="M298.63,64.16c-4.87-0.72-9.23-7.28-8.06-12.21c0.37-1.58,2.1-1.65,2.3-0.6c0.89,4.69,4.38,7.75,6.55,11.61
		c0.11,0.2-0.6,0.86-0.93,1.3C298.49,64.26,298.63,64.16,298.63,64.16z"/>
	<path class="st1" d="M394.47,180.1c2.26-0.31,1.36-2.84,2.96-4.14c0.26,2.26,0.55,4.22,0.7,6.2c0.11,1.49,0.27,3.42-1.59,3.73
		c-2.22,0.37-2.04-1.64-2.17-3.11c-0.07-0.75-0.17-1.5-0.26-2.26C394.1,180.52,394.47,180.1,394.47,180.1z"/>
	<path class="st1" d="M93,111.89c-0.29-1.24-0.89-2.48-0.77-3.64c0.14-1.33,2.03-2.86,0.11-3.89c-2.1-1.12-3.18,1.25-4.71,2.15
		c-2.6,1.54-1,6.84-5.79,6.44c1.9-9.53,9.08-13.03,16.82-8.34c0.77,0.47,1,1.05,1.01,1.77c0.01,0.92-0.16,2.3-1.31,1.95
		C95.03,107.34,95.26,111.17,93,111.89z"/>
	<path class="st1" d="M82.71,97.23c2.56-2.85,5.51-2.23,7.9-3.19c1.06-0.42,2.9-0.93,3.14,0.97c0.23,1.75,2.13,3.48,0.56,5.28
		c-1.19,1.37-3.54,0.7-4.09,0.08C88.36,98.24,85.59,98.43,82.71,97.23z"/>
</g>
</svg>
