<?xml version="1.0" encoding="utf-8"?>
<!-- Generator: Adobe Illustrator 25.2.1, SVG Export Plug-In . SVG Version: 6.00 Build 0)  -->
<svg version="1.1" id="Layer_1" xmlns="http://www.w3.org/2000/svg" xmlns:xlink="http://www.w3.org/1999/xlink" x="0px" y="0px"
	 viewBox="0 0 601.52 601.83" style="enable-background:new 0 0 601.52 601.83;" xml:space="preserve">
<style type="text/css">
	.st0{fill:#F7FBFD;}
</style>
<g>
	<path class="st0" d="M85.55,197.35l-8.13-4.72l12.5-21.51l8.13,4.72l-3.25,5.59l20.7,12.02l-5.8,9.98L89,191.41L85.55,197.35z"/>
	<path class="st0" d="M129.53,173.44l-9.27-7.05l-3.95,5.19l9.27,7.05l-6.99,9.19l-26.53-20.19l6.99-9.19l9.78,7.44l3.95-5.19
		l-9.78-7.44l6.99-9.19l26.53,20.19L129.53,173.44z"/>
	<path class="st0" d="M137.24,163.67l-23.76-23.38L131,122.48l6.56,6.46l-9.42,9.58l2.02,1.99l7.33-7.45l6.49,6.39l-7.33,7.45
		l2.13,2.09l9.42-9.58l6.56,6.46L137.24,163.67z"/>
	<path class="st0" d="M160.88,129.92l-2.22,1.76l5.35,6.74l-9.04,7.17l-20.72-26.12l10.99-8.72c4.03-3.2,7.44-4.81,10.25-4.86
		c2.8-0.04,5.64,1.75,8.52,5.37s3.97,6.98,3.28,10.07l9.62,6.85l-9.2,7.3L160.88,129.92z M155.18,122.82
		c1.27-1.01,1.24-2.37-0.12-4.07c-1.35-1.7-2.74-1.99-4.17-0.85l-1.99,1.58l4.05,5.11L155.18,122.82z"/>
	<path class="st0" d="M177.53,127.9l-17.35-28.47l21.33-13l4.79,7.86l-11.47,6.99l1.48,2.42l8.92-5.44l4.74,7.78l-8.92,5.44
		l1.55,2.55l11.47-6.99l4.79,7.86L177.53,127.9z"/>
	<path class="st0" d="M208.65,110.34L195.29,79.8l10.58-4.63l13.36,30.54L208.65,110.34z"/>
	<path class="st0" d="M237.1,74.39c-4.6,1-7.9,1.83-9.92,2.49c-2.02,0.67-3.17,1.11-3.46,1.33c-0.29,0.22-0.38,0.5-0.27,0.85
		c0.11,0.35,0.39,0.55,0.83,0.62s1.73-0.01,3.88-0.23c2.15-0.22,3.93-0.33,5.34-0.33c1.42,0,2.76,0.22,4.04,0.65
		c1.28,0.43,2.27,1.15,2.97,2.16c0.7,1.01,1.36,2.46,1.99,4.35c1.29,3.91,1.17,7.04-0.35,9.39c-1.53,2.36-4.38,4.23-8.57,5.61
		c-2.02,0.67-4.18,1.23-6.49,1.68c-2.31,0.45-4.12,0.73-5.41,0.85l-1.98,0.18l-2.29-8.52c5.05-0.9,9.11-1.86,12.2-2.88
		c1.64-0.54,2.34-1.17,2.1-1.9c-0.1-0.31-0.37-0.48-0.79-0.5s-1.51,0.13-3.27,0.43c-4.64,0.77-8,0.68-10.07-0.26
		c-2.08-0.94-3.66-3.08-4.77-6.42c-1.41-4.25-1.35-7.5,0.18-9.76c1.53-2.25,4.42-4.08,8.67-5.49c2.99-0.99,6.6-1.85,10.83-2.59
		l2.09-0.33L237.1,74.39z"/>
	<path class="st0" d="M255.34,94.12l-4.61-33.02l11.24-1.57l9.34,11.46l0.69-0.1l-1.75-12.52l11.43-1.6l4.61,33.02L275,91.38
		l-9.37-12.41l-0.74,0.1l1.88,13.45L255.34,94.12z"/>
	<path class="st0" d="M318.07,73.45c-0.1,6.07-1.43,10.45-4,13.15c-2.57,2.7-6.61,4-12.13,3.91s-9.53-1.53-12.02-4.33
		c-2.49-2.79-3.69-7.22-3.59-13.27c0.1-6.05,1.43-10.43,4-13.12c2.56-2.7,6.62-4,12.16-3.91s9.55,1.52,12.02,4.3
		C316.98,62.95,318.17,67.38,318.07,73.45z M297.97,73.12c-0.05,2.82,0.2,4.86,0.72,6.11c0.53,1.25,1.66,1.89,3.4,1.92
		s2.89-0.57,3.44-1.79c0.55-1.22,0.85-3.26,0.9-6.13c0.05-2.87-0.18-4.91-0.67-6.13c-0.5-1.22-1.62-1.84-3.38-1.87
		c-1.76-0.03-2.92,0.57-3.49,1.81C298.32,68.27,298.01,70.3,297.97,73.12z"/>
	<path class="st0" d="M342.15,86.49l-1.52-0.28l-1.29,6.95l-11.35-2.12l6.11-32.77l12.87,2.4c5.19,0.97,8.79,2.57,10.82,4.8
		c2.03,2.23,2.58,5.82,1.66,10.76c-0.92,4.94-2.75,8.13-5.48,9.56C351.24,87.22,347.3,87.45,342.15,86.49z M342.3,77.26l1.03,0.19
		c1.4,0.26,2.46,0.14,3.18-0.37c0.72-0.51,1.22-1.51,1.5-3.01c0.28-1.5,0.18-2.56-0.29-3.19c-0.47-0.63-1.44-1.08-2.91-1.35
		l-1.03-0.19L342.3,77.26z"/>
	<path class="st0" d="M377.34,103.15l-21.38-6.65l9.91-31.83l11.02,3.43l-7.11,22.85l10.36,3.22L377.34,103.15z"/>
	<path class="st0" d="M375.78,102.28l20.38-27.39l15.93,7.16l-6.8,33.49l-10.62-4.77l0.71-3.88l-6.95-3.12l-2.3,3.17L375.78,102.28z
		 M399.89,86.49l-6.5,9.85l4.49,2.02L401.02,87L399.89,86.49z"/>
	<path class="st0" d="M404.3,115.05l17.8-28.19l9.59,6.06l-0.27,14.78l0.59,0.37l6.75-10.69l9.76,6.16l-17.8,28.19l-9.64-6.08
		l0.86-15.52l-0.63-0.4l-7.25,11.49L404.3,115.05z"/>
	<path class="st0" d="M431.27,132.41l21.32-25.63l19.21,15.97l-5.89,7.08l-10.33-8.59l-1.81,2.18l8.03,6.68l-5.82,7l-8.03-6.68
		l-1.91,2.3l10.33,8.59l-5.89,7.08L431.27,132.41z"/>
	<path class="st0" d="M467.32,131.45l6.79-6.51l17.22,17.96l-6.79,6.51l-4.48-4.67l-17.27,16.57l-7.99-8.33l17.27-16.57
		L467.32,131.45z"/>
	<path class="st0" d="M501.17,154.84l8.52,12.44c4.59,6.71,4.62,11.62,0.07,14.73c-1.72,1.18-3.18,1.91-4.36,2.17
		c-1.18,0.27-2.58,0.11-4.19-0.48c0.34,1.73,0.27,3.14-0.22,4.22c-0.49,1.08-1.7,2.28-3.65,3.61c-5.2,3.56-10.22,1.81-15.05-5.25
		l-8.63-12.6L501.17,154.84z M492.58,177.97l-1.52-2.22l-4.52,3.09l1.52,2.22c0.66,0.96,1.25,1.49,1.79,1.61
		c0.54,0.11,1.24-0.13,2.1-0.72s1.34-1.18,1.42-1.76S493.2,178.87,492.58,177.97z M502.84,170.76l-1.43-2.09l-4.39,3.01l1.46,2.14
		c0.56,0.82,1.13,1.27,1.71,1.36c0.58,0.08,1.26-0.14,2.04-0.67s1.21-1.09,1.3-1.67C503.62,172.25,503.39,171.56,502.84,170.76z"/>
	<path class="st0" d="M489.48,197.57l8.62-4.77l5.49,9.93l-8.62,4.77L489.48,197.57z M500.27,191.99l18.21-10.87l5.83,10.54
		l-18.88,9.65L500.27,191.99z"/>
</g>
</svg>
