<?xml version="1.0" encoding="utf-8"?>
<!-- Generator: Adobe Illustrator 25.2.1, SVG Export Plug-In . SVG Version: 6.00 Build 0)  -->
<svg version="1.1" id="Layer_1" xmlns="http://www.w3.org/2000/svg" xmlns:xlink="http://www.w3.org/1999/xlink" x="0px" y="0px"
	 viewBox="0 0 543.52 242.23" style="enable-background:new 0 0 543.52 242.23;" xml:space="preserve">
<style type="text/css">
	.st0{fill:#F7FBFD;}
</style>
<g>
	<path class="st0" d="M11.19,224.45l-10.42-2.73l7.16-27.34l10.42,2.73l-1.86,7.11l26.52,6.94l-3.32,12.69l-26.52-6.94L11.19,224.45
		z"/>
	<path class="st0" d="M54.79,179.55l-12.23-5.32l-2.95,6.79l12.23,5.32l-5.23,12.02l-35.02-15.22l5.23-12.03l12.91,5.61l2.95-6.79
		l-12.91-5.61L25,152.3l35.02,15.22L54.79,179.55z"/>
	<path class="st0" d="M63.52,161.45L31.3,140.94l15.24-23.93l8.89,5.66l-8.2,12.87l2.74,1.75l6.38-10.01l8.8,5.6l-6.38,10.01
		l2.88,1.84l8.2-12.87l8.89,5.66L63.52,161.45z"/>
	<path class="st0" d="M85.85,113.6l-2.12,2.42l7.42,6.5l-8.64,9.86l-28.73-25.17l10.5-11.99c3.85-4.39,7.34-6.89,10.48-7.5
		c3.14-0.61,6.7,0.83,10.68,4.33c3.99,3.49,5.92,7.04,5.8,10.64l12.23,5.76l-8.79,10.03L85.85,113.6z M77.96,106.77
		c1.22-1.39,0.89-2.9-0.98-4.54c-1.87-1.64-3.49-1.68-4.86-0.12l-1.9,2.17l5.62,4.92L77.96,106.77z"/>
	<path class="st0" d="M108.41,103.85L83.84,74.61l21.72-18.25l6.78,8.07l-11.68,9.82l2.09,2.49l9.09-7.63l6.71,7.99l-9.09,7.63
		l2.2,2.62l11.68-9.82l6.78,8.07L108.41,103.85z"/>
	<path class="st0" d="M150.57,72.43l-18.57-33.37l11.46-6.37l18.57,33.37L150.57,72.43z"/>
	<path class="st0" d="M185.19,26.29c-5.14,1.47-8.82,2.66-11.06,3.56s-3.51,1.5-3.83,1.77c-0.32,0.27-0.4,0.6-0.24,0.99
		c0.16,0.39,0.49,0.6,0.99,0.64c0.5,0.04,1.96-0.14,4.38-0.55c2.42-0.41,4.43-0.66,6.04-0.76c1.61-0.1,3.15,0.05,4.64,0.46
		c1.48,0.4,2.66,1.16,3.54,2.26c0.87,1.1,1.74,2.71,2.6,4.82c1.77,4.37,1.88,7.95,0.33,10.75c-1.55,2.8-4.64,5.14-9.29,7.03
		c-2.23,0.91-4.65,1.7-7.24,2.38s-4.61,1.13-6.07,1.35l-2.24,0.35l-3.27-9.56c5.66-1.39,10.2-2.78,13.62-4.17
		c1.82-0.74,2.56-1.51,2.23-2.32c-0.14-0.35-0.46-0.52-0.94-0.51c-0.48,0.01-1.71,0.25-3.67,0.72c-5.2,1.21-9.02,1.35-11.44,0.43
		c-2.43-0.92-4.4-3.25-5.91-6.98c-1.93-4.75-2.11-8.47-0.56-11.15c1.56-2.68,4.69-4.98,9.41-6.89c3.32-1.34,7.35-2.59,12.09-3.73
		l2.35-0.52L185.19,26.29z"/>
	<path class="st0" d="M219.02,44.65l-5.48-37.79l12.75-1.85l10.69,13.08l0.78-0.11L235.7,3.65l12.98-1.88l5.48,37.8l-12.81,1.86
		l-10.73-14.17l-0.84,0.12l2.23,15.4L219.02,44.65z"/>
	<path class="st0" d="M296.68,21.26c-0.22,6.95-1.8,11.95-4.76,14.99c-2.96,3.04-7.58,4.47-13.85,4.27
		c-6.27-0.19-10.8-1.91-13.58-5.16c-2.78-3.24-4.07-8.33-3.85-15.26c0.22-6.93,1.8-11.92,4.76-14.96c2.96-3.04,7.58-4.47,13.87-4.27
		c6.29,0.2,10.82,1.9,13.58,5.13S296.9,14.31,296.68,21.26z M273.86,20.55c-0.1,3.23,0.14,5.56,0.71,7.01s1.85,2.2,3.83,2.26
		c1.98,0.06,3.29-0.6,3.94-1.99c0.65-1.39,1.02-3.72,1.12-7.01c0.1-3.29-0.12-5.63-0.66-7.04c-0.54-1.4-1.81-2.14-3.8-2.2
		c-2-0.06-3.33,0.61-3.99,2.01C274.34,15,273.96,17.32,273.86,20.55z"/>
	<path class="st0" d="M335.61,40.35l-1.69-0.47l-2.18,7.79l-12.63-3.53l10.29-36.78l14.31,4.01c5.77,1.61,9.69,3.8,11.75,6.55
		c2.07,2.75,2.33,6.9,0.77,12.44s-3.95,9-7.18,10.36C345.83,42.08,341.34,41.96,335.61,40.35z M336.73,29.83l1.14,0.32
		c1.56,0.44,2.77,0.4,3.64-0.11c0.87-0.51,1.54-1.6,2.01-3.29c0.47-1.68,0.47-2.91,0-3.67c-0.47-0.76-1.52-1.37-3.16-1.83
		l-1.14-0.32L336.73,29.83z"/>
	<path class="st0" d="M379.01,65.65l-23.2-10.41l15.64-34.84l11.96,5.37l-11.23,25.01l11.24,5.04L379.01,65.65z"/>
	<path class="st0" d="M382.67,67.21l27.72-27.56l16.67,10.75l-13.52,36.72l-11.12-7.17l1.48-4.27l-7.27-4.69l-3.14,3.2L382.67,67.21
		z M412.57,53.39l-9.03,10.05l4.7,3.03l5.52-12.31L412.57,53.39z"/>
	<path class="st0" d="M417.25,90.05l25.85-28.11l9.48,8.72l-3.4,16.55l0.58,0.54l9.8-10.66l9.65,8.88l-25.85,28.11l-9.53-8.76
		l4.21-17.27l-0.62-0.57L426.9,98.93L417.25,90.05z"/>
	<path class="st0" d="M447.86,119.39l30.01-23.62l17.55,22.29l-8.29,6.52l-9.44-11.99l-2.55,2.01l7.34,9.33l-8.2,6.45l-7.34-9.33
		l-2.69,2.12l9.44,11.99l-8.29,6.52L447.86,119.39z"/>
	<path class="st0" d="M492.11,132.38l9.32-5.4l14.17,24.45l-9.32,5.4l-3.68-6.36l-23.72,13.75l-6.57-11.35l23.72-13.75
		L492.11,132.38z"/>
	<path class="st0" d="M528.56,180.5l5.13,16.34c2.76,8.81,1.13,14.16-4.88,16.04c-2.28,0.72-4.12,1.03-5.5,0.93
		c-1.39-0.1-2.86-0.73-4.42-1.9c-0.21,2-0.76,3.51-1.66,4.52c-0.9,1.01-2.63,1.92-5.21,2.73c-6.89,2.16-11.79-1.4-14.7-10.67
		l-5.19-16.56L528.56,180.5z M511.37,202.83l-0.91-2.91l-5.98,1.88l0.91,2.91c0.39,1.26,0.87,2.04,1.42,2.34
		c0.55,0.3,1.4,0.27,2.54-0.09c1.14-0.36,1.86-0.84,2.15-1.44C511.78,204.91,511.74,204.02,511.37,202.83z M525.02,198.37
		l-0.86-2.75l-5.82,1.83l0.88,2.8c0.34,1.08,0.81,1.76,1.42,2.04s1.43,0.26,2.46-0.06s1.69-0.79,1.98-1.39
		C525.37,200.24,525.35,199.41,525.02,198.37z"/>
	<path class="st0" d="M502.67,229l11.1-2.03l2.31,12.68l-11.1,2.03L502.67,229z M516.42,226.89l23.75-5.14l2.46,13.46l-24.03,3.58
		L516.42,226.89z"/>
</g>
</svg>
