<?xml version="1.0" encoding="utf-8"?>
<!-- Generator: Adobe Illustrator 25.2.1, SVG Export Plug-In . SVG Version: 6.00 Build 0)  -->
<svg version="1.1" id="Layer_1" xmlns="http://www.w3.org/2000/svg" xmlns:xlink="http://www.w3.org/1999/xlink" x="0px" y="0px"
	 viewBox="0 0 601.52 601.83" style="enable-background:new 0 0 601.52 601.83;" xml:space="preserve">
<style type="text/css">
	.st0{fill:#F7FBFD;}
</style>
<g>
	<path class="st0" d="M543.93,458.36l8.41,6.05l-16.01,22.25l-8.41-6.05l4.16-5.79l-21.41-15.4l7.43-10.33l21.41,15.4L543.93,458.36
		z"/>
	<path class="st0" d="M491.9,481.48l9.44,8.69l4.87-5.28l-9.44-8.69l8.62-9.36l27.02,24.89l-8.62,9.36l-9.96-9.18l-4.87,5.28
		l9.96,9.18l-8.62,9.36l-27.02-24.89L491.9,481.48z"/>
	<path class="st0" d="M480.97,492.8l23.75,28.03l-21,17.79l-6.56-7.74l11.3-9.57l-2.02-2.38l-8.79,7.44l-6.49-7.66l8.79-7.44
		l-2.13-2.51l-11.3,9.57l-6.56-7.74L480.97,492.8z"/>
	<path class="st0" d="M450.09,528.72l2.61-1.72l-5.22-7.92l10.62-7l20.21,30.68l-12.91,8.51c-4.73,3.12-8.64,4.56-11.72,4.34
		s-6.02-2.47-8.83-6.72c-2.81-4.26-3.68-8.05-2.63-11.37l-9.9-8.45l10.81-7.12L450.09,528.72z M455.66,537.07
		c-1.5,0.99-1.58,2.48-0.27,4.48s2.82,2.45,4.49,1.34l2.33-1.54l-3.95-6L455.66,537.07z"/>
	<path class="st0" d="M429.89,530.32l16.37,32.89l-24.64,12.26l-4.52-9.08l13.25-6.6l-1.39-2.8l-10.31,5.13l-4.47-8.98l10.31-5.13
		l-1.47-2.95l-13.25,6.6l-4.52-9.08L429.89,530.32z"/>
	<path class="st0" d="M390.46,548.13l11.66,34.83L390.06,587l-11.66-34.84L390.46,548.13z"/>
	<path class="st0" d="M353.79,585.35c5.14-0.64,8.85-1.23,11.13-1.77c2.28-0.54,3.59-0.91,3.93-1.12c0.34-0.21,0.47-0.51,0.38-0.91
		s-0.38-0.64-0.85-0.76c-0.48-0.11-1.9-0.15-4.28-0.12c-2.38,0.03-4.34-0.02-5.9-0.16c-1.55-0.14-3.01-0.51-4.37-1.11
		s-2.38-1.49-3.05-2.66c-0.67-1.18-1.26-2.83-1.76-4.97c-1.04-4.41-0.6-7.84,1.31-10.28c1.91-2.44,5.23-4.21,9.96-5.32
		c2.28-0.54,4.71-0.94,7.29-1.21c2.58-0.27,4.59-0.4,6.02-0.4l2.19-0.01l1.68,9.57c-5.63,0.5-10.19,1.15-13.67,1.97
		c-1.85,0.43-2.68,1.06-2.49,1.88c0.08,0.36,0.36,0.56,0.82,0.62c0.46,0.06,1.67,0.01,3.63-0.15c5.17-0.39,8.84,0.04,11.03,1.27
		c2.19,1.23,3.72,3.73,4.61,7.51c1.13,4.8,0.74,8.37-1.15,10.69c-1.9,2.32-5.25,4.05-10.05,5.17c-3.38,0.79-7.43,1.39-12.14,1.78
		l-2.33,0.15L353.79,585.35z"/>
	<path class="st0" d="M331.79,562.46l1.88,36.69l-12.48,0.64l-9.15-13.48l-0.77,0.04l0.71,13.91l-12.7,0.65l-1.89-36.69l12.54-0.64
		l9.09,14.52l0.82-0.04l-0.77-14.95L331.79,562.46z"/>
	<path class="st0" d="M258.95,579.51c0.57-6.66,2.38-11.38,5.4-14.15c3.03-2.77,7.57-3.89,13.64-3.36
		c6.06,0.52,10.36,2.42,12.88,5.68c2.53,3.26,3.5,8.22,2.93,14.86s-2.37,11.35-5.4,14.12c-3.03,2.77-7.58,3.89-13.66,3.36
		c-6.08-0.52-10.38-2.41-12.89-5.65S258.37,586.17,258.95,579.51z M281.02,581.41c0.27-3.1,0.16-5.35-0.32-6.77
		c-0.48-1.42-1.68-2.21-3.59-2.37s-3.22,0.4-3.92,1.7c-0.7,1.3-1.18,3.52-1.46,6.67c-0.27,3.15-0.18,5.41,0.27,6.79
		c0.45,1.38,1.64,2.15,3.57,2.32c1.93,0.17,3.25-0.41,3.97-1.72C280.26,586.71,280.75,584.51,281.02,581.41z"/>
	<path class="st0" d="M229.83,562.07l1.64,0.45l2.06-7.51l12.27,3.36l-9.71,35.43l-13.91-3.81c-5.61-1.54-9.42-3.62-11.45-6.26
		c-2.02-2.64-2.31-6.63-0.84-11.97c1.46-5.34,3.76-8.67,6.89-9.99C219.91,560.44,224.26,560.54,229.83,562.07z M228.82,572.2
		l-1.11-0.3c-1.52-0.42-2.69-0.38-3.53,0.11c-0.84,0.49-1.48,1.55-1.92,3.17c-0.44,1.62-0.43,2.8,0.03,3.53
		c0.46,0.73,1.49,1.32,3.07,1.75l1.11,0.3L228.82,572.2z"/>
	<path class="st0" d="M190.76,539.96l22.89,9.21l-13.72,34.08l-11.8-4.75l9.85-24.47l-11.09-4.46L190.76,539.96z"/>
	<path class="st0" d="M190.57,540.19l-24.74,28.35l-16.89-9.23l10.35-36.21l11.26,6.15l-1.11,4.2l7.36,4.02l2.79-3.28L190.57,540.19
		z M162.73,555.47l7.98-10.26l-4.76-2.6l-4.42,12.21L162.73,555.47z"/>
	<path class="st0" d="M158.63,522.62l-21.83,29.55l-10.06-7.43l1.48-16.22l-0.62-0.46l-8.28,11.2l-10.23-7.56l21.83-29.55l10.1,7.46
		l-2.19,16.99l0.66,0.49l8.89-12.04L158.63,522.62z"/>
	<path class="st0" d="M128.81,500.06l-25.39,26.55l-19.89-19.02l7.01-7.33l10.7,10.23l2.16-2.26l-8.32-7.96l6.94-7.25l8.32,7.96
		l2.27-2.38l-10.7-10.23l7.01-7.33L128.81,500.06z"/>
	<path class="st0" d="M87.76,496.93l-7.94,6.65l-17.6-21.02l7.94-6.65l4.58,5.46l20.22-16.93l8.17,9.75L82.9,491.13L87.76,496.93z"
		/>
	<path class="st0" d="M50.01,465.48l-8.43-14.32c-4.54-7.72-4.2-13.12,1.03-16.19c1.98-1.17,3.64-1.85,4.96-2.06
		c1.32-0.21,2.84,0.08,4.57,0.84c-0.25-1.93-0.06-3.47,0.56-4.62c0.62-1.15,2.05-2.38,4.28-3.7c5.99-3.52,11.37-1.22,16.15,6.91
		l8.54,14.51L50.01,465.48z M49.37,447.85l1.42,2.41l5.06-2.98l-1.45-2.46c-0.56-0.95-1.15-1.49-1.78-1.62
		c-0.63-0.14-1.4,0.06-2.29,0.59c-0.9,0.53-1.41,1.11-1.55,1.74S48.83,446.94,49.37,447.85z M61.2,440.7l1.5,2.55l5.2-3.06
		l-1.5-2.55c-0.65-1.1-1.27-1.74-1.85-1.9c-0.58-0.17-1.37,0.04-2.37,0.63c-0.99,0.58-1.56,1.19-1.69,1.82
		C60.35,438.82,60.58,439.66,61.2,440.7z"/>
	<path class="st0" d="M52.86,422.93l-20.83,10.59l-5.62-12.02l21.49-9.2L52.86,422.93z M65.14,417.61l-9.83,4.6l-5.29-11.32
		l9.83-4.6L65.14,417.61z"/>
</g>
</svg>
