<?xml version="1.0" encoding="utf-8"?>
<!-- Generator: Adobe Illustrator 25.2.1, SVG Export Plug-In . SVG Version: 6.00 Build 0)  -->
<svg version="1.1" id="Layer_1" xmlns="http://www.w3.org/2000/svg" xmlns:xlink="http://www.w3.org/1999/xlink" x="0px" y="0px"
	 viewBox="0 0 738.39 316.7" style="enable-background:new 0 0 738.39 316.7;" xml:space="preserve">
<style type="text/css">
	.st0{fill:#F7FBFD;}
</style>
<g>
	<path class="st0" d="M723.69,0.42l13.83,2.78l-7.57,37.63l-13.83-2.78l1.97-9.78l-35.21-7.08l3.51-17.46l35.21,7.08L723.69,0.42z"
		/>
	<path class="st0" d="M669.11,64.76l16.34,6.2l3.57-9.4l-16.33-6.2l6.32-16.65l46.77,17.75l-6.32,16.65l-17.24-6.54l-3.57,9.4
		l17.24,6.54l-6.32,16.65l-46.77-17.75L669.11,64.76z"/>
	<path class="st0" d="M658.4,89.79L701.61,115l-19.43,33.29l-11.93-6.96l10.45-17.9l-3.68-2.15l-8.13,13.92l-11.8-6.89l8.13-13.92
		l-3.87-2.26l-10.45,17.9l-11.93-6.96L658.4,89.79z"/>
	<path class="st0" d="M630.07,155.57l2.77-3.38l-9.99-8.19l11.29-13.77l38.69,31.71l-13.73,16.74c-5.03,6.13-9.62,9.72-13.78,10.74
		c-4.16,1.03-8.92-0.66-14.29-5.06s-8.01-9.01-7.92-13.84l-16.38-6.87l11.49-14.01L630.07,155.57z M640.69,164.17
		c-1.59,1.94-1.12,3.94,1.4,6.01c2.52,2.07,4.67,2.01,6.46-0.17l2.48-3.03l-7.56-6.2L640.69,164.17z"/>
	<path class="st0" d="M600.17,170.13l33.3,37.33l-28.76,25.65l-9.2-10.31l15.47-13.8l-2.83-3.18l-12.03,10.73l-9.09-10.2
		l12.03-10.73l-2.98-3.34l-15.47,13.8l-9.19-10.31L600.17,170.13z"/>
	<path class="st0" d="M544.05,214.56l25.61,42.98l-15.3,9.12l-25.61-42.98L544.05,214.56z"/>
	<path class="st0" d="M498.32,277.51c6.9-2.24,11.85-4.02,14.85-5.35c3-1.33,4.7-2.18,5.12-2.55c0.42-0.38,0.52-0.82,0.3-1.32
		c-0.22-0.5-0.67-0.76-1.36-0.79c-0.68-0.02-2.65,0.3-5.9,0.98c-3.25,0.68-5.96,1.13-8.13,1.35c-2.17,0.22-4.26,0.12-6.27-0.33
		c-2.01-0.44-3.63-1.36-4.83-2.76c-1.21-1.4-2.42-3.46-3.62-6.19c-2.5-5.64-2.74-10.36-0.72-14.14c2.02-3.78,6.14-7.05,12.37-9.8
		c3-1.33,6.23-2.51,9.71-3.56s6.2-1.77,8.16-2.14l3.01-0.6l4.65,12.4c-7.6,2.17-13.7,4.27-18.29,6.3c-2.43,1.08-3.42,2.14-2.96,3.19
		c0.2,0.45,0.63,0.66,1.28,0.62c0.65-0.04,2.3-0.43,4.94-1.17c7-1.9,12.14-2.31,15.44-1.24c3.3,1.07,6.02,4.02,8.15,8.84
		c2.72,6.15,3.06,11.03,1.03,14.65c-2.04,3.62-6.21,6.83-12.53,9.63c-4.45,1.97-9.86,3.84-16.23,5.63l-3.16,0.83L498.32,277.51z"/>
	<path class="st0" d="M451.77,255.43l9.03,49.2l-17.22,3.16l-15.05-16.52l-1.06,0.19l3.42,18.65l-17.52,3.22l-9.03-49.2l17.29-3.17
		l15.16,17.94l1.13-0.21l-3.68-20.05L451.77,255.43z"/>
	<path class="st0" d="M347.42,290.63c-0.14-9.11,1.7-15.75,5.52-19.91c3.82-4.17,10-6.32,18.52-6.45s14.77,1.83,18.75,5.9
		c3.98,4.07,6.04,10.65,6.19,19.73c0.14,9.08-1.7,15.71-5.52,19.88c-3.82,4.17-10.01,6.32-18.56,6.45
		c-8.55,0.13-14.8-1.82-18.75-5.86C349.61,306.31,347.57,299.73,347.42,290.63z M378.43,290.14c-0.07-4.23-0.54-7.27-1.41-9.12
		c-0.87-1.85-2.65-2.76-5.34-2.72c-2.69,0.04-4.42,0.99-5.21,2.85c-0.79,1.85-1.15,4.93-1.08,9.24c0.07,4.3,0.51,7.36,1.33,9.16
		c0.82,1.8,2.59,2.68,5.3,2.64c2.71-0.04,4.48-1,5.29-2.88C378.13,297.42,378.5,294.37,378.43,290.14z"/>
	<path class="st0" d="M293.14,267.75l2.32,0.52l2.32-10.34l17.38,3.9l-10.96,48.81l-19.7-4.42c-7.94-1.78-13.42-4.42-16.44-7.9
		c-3.02-3.48-3.71-8.91-2.05-16.26c1.65-7.36,4.62-12.02,8.89-14C279.17,266.08,285.25,265.98,293.14,267.75z M292.47,281.61
		l-1.57-0.35c-2.15-0.48-3.79-0.37-4.92,0.35c-1.13,0.71-1.95,2.19-2.45,4.42c-0.5,2.23-0.4,3.84,0.3,4.81
		c0.7,0.97,2.17,1.71,4.42,2.22l1.57,0.35L292.47,281.61z"/>
	<path class="st0" d="M232.15,236.99l32.26,12.36l-17.9,46.71l-16.63-6.37l12.85-33.54l-15.63-5.99L232.15,236.99z"/>
	<path class="st0" d="M226.88,235.08l-34.52,37.95l-23.46-13.27l14.54-49.25l15.64,8.84l-1.56,5.72l10.22,5.78l3.9-4.4
		L226.88,235.08z M188.1,255l11.14-13.77l-6.62-3.74l-6.2,16.57L188.1,255z"/>
	<path class="st0" d="M178.07,206.75l-31.69,38.71l-13.54-11.09l2.87-22.16l-0.83-0.68l-12.01,14.67l-13.78-11.28l31.69-38.71
		l13.6,11.14l-3.88,23.16l0.89,0.73l12.91-15.77L178.07,206.75z"/>
	<path class="st0" d="M134.22,169.29l-37.56,33.04L71.2,173.4l10.37-9.12l13.69,15.56l3.2-2.81l-10.65-12.1l10.26-9.03l10.65,12.1
		l3.36-2.96l-13.69-15.56l10.37-9.12L134.22,169.29z"/>
	<path class="st0" d="M74.23,154.04l-11.84,7.67l-20.87-32.21l11.84-7.67l5.43,8.38l30.14-19.53l9.69,14.95l-30.14,19.53
		L74.23,154.04z"/>
	<path class="st0" d="M22.13,90.79l-7.81-21.91C10.11,57.07,11.9,49.77,19.68,47c2.95-1.05,5.35-1.54,7.17-1.45
		c1.83,0.08,3.8,0.89,5.93,2.41c0.14-2.71,0.77-4.77,1.88-6.17c1.11-1.4,3.33-2.7,6.66-3.88c8.91-3.17,15.58,1.46,20.01,13.9
		L69.25,74L22.13,90.79z M25.6,66.49l1.31,3.69l7.53-2.68l-1.34-3.76c-0.52-1.45-1.18-2.35-2-2.71c-0.81-0.36-1.89-0.3-3.23,0.17
		c-1.34,0.48-2.17,1.13-2.51,1.96C25.02,63.98,25.1,65.09,25.6,66.49z M43.24,59.96l1.39,3.91l7.74-2.76l-1.39-3.91
		c-0.6-1.69-1.27-2.72-2.02-3.11s-1.86-0.32-3.33,0.21c-1.48,0.53-2.38,1.2-2.72,2.03C42.56,57.16,42.68,58.37,43.24,59.96z"/>
	<path class="st0" d="M35.19,27.58l-30.88,7.7L0.42,17.11l31.33-5.59L35.19,27.58z M53.12,24.3l-14.46,3.09L35,10.27l14.46-3.09
		L53.12,24.3z"/>
</g>
</svg>
